<svg width="68" height="20" viewBox="0 0 68 20" fill="none" xmlns="http://www.w3.org/2000/svg">
<g filter="url(#filter0_d_0_3913)">
<path fill-rule="evenodd" clip-rule="evenodd" d="M46 0H62C63.1 0 64 0.9 64 2V18C64 19.1 63.1 20 62 20H46C44.9 20 44 19.1 44 18V2C44 0.9 44.9 0 46 0ZM50 17V8H47V17H50ZM48.5 6.3C47.5 6.3 46.7 5.5 46.7 4.5C46.7 3.5 47.5 2.7 48.5 2.7C49.5 2.7 50.3 3.5 50.3 4.5C50.3 5.5 49.5 6.3 48.5 6.3ZM58 17H61V11.3C61 9.4 59.4 7.8 57.5 7.8C56.6 7.8 55.5 8.4 55 9.2V8H52V17H55V11.7C55 10.9 55.7 10.2 56.5 10.2C57.3 10.2 58 10.9 58 11.7V17Z" fill="white"/>
<path d="M28 2.309C27.117 2.701 26.168 2.965 25.172 3.084C26.189 2.475 26.97 1.51 27.337 0.36C26.386 0.924 25.332 1.334 24.21 1.555C23.313 0.598 22.032 0 20.616 0C17.437 0 15.101 2.966 15.819 6.045C11.728 5.84 8.1 3.88 5.671 0.901C4.381 3.114 5.002 6.009 7.194 7.475C6.388 7.449 5.628 7.228 4.965 6.859C4.911 9.14 6.546 11.274 8.914 11.749C8.221 11.937 7.462 11.981 6.69 11.833C7.316 13.789 9.134 15.212 11.29 15.252C9.22 16.875 6.612 17.6 4 17.292C6.179 18.689 8.768 19.504 11.548 19.504C20.69 19.504 25.855 11.783 25.543 4.858C26.505 4.163 27.34 3.296 28 2.309Z" fill="white"/>
</g>
<defs>
<filter id="filter0_d_0_3913" x="0" y="0" width="68" height="28" filterUnits="userSpaceOnUse" color-interpolation-filters="sRGB">
<feFlood flood-opacity="0" result="BackgroundImageFix"/>
<feColorMatrix in="SourceAlpha" type="matrix" values="0 0 0 0 0 0 0 0 0 0 0 0 0 0 0 0 0 0 127 0" result="hardAlpha"/>
<feOffset dy="4"/>
<feGaussianBlur stdDeviation="2"/>
<feComposite in2="hardAlpha" operator="out"/>
<feColorMatrix type="matrix" values="0 0 0 0 0 0 0 0 0 0 0 0 0 0 0 0 0 0 0.25 0"/>
<feBlend mode="normal" in2="BackgroundImageFix" result="effect1_dropShadow_0_3913"/>
<feBlend mode="normal" in="SourceGraphic" in2="effect1_dropShadow_0_3913" result="shape"/>
</filter>
</defs>
</svg>
